<svg width="151" height="123" viewBox="0 0 151 123" fill="none" xmlns="http://www.w3.org/2000/svg">
<path d="M58.3633 0L18.1104 107.586C14.0839 118.093 9.38738 121.31 0 121.646V123C14.5192 122.497 26.1289 122.491 39.915 122.977C40.0467 122.977 40.1785 122.988 40.3102 122.988C40.4018 122.988 40.4935 122.988 40.5851 122.983C49.835 122.763 55.4938 122.641 60.2076 122.624V0H58.3633ZM58.3633 75.9015H58.3576C58.3576 120.46 54.7435 120.992 40.2644 121.623C32.8243 121.102 25.5561 119.777 30.1897 107.58L40.2529 81.3172C41.5932 77.591 44.4454 75.8957 48.4719 75.8957H58.3576C58.3576 75.3345 58.3633 74.7732 58.3633 74.2004H51.6564C46.4558 74.2004 44.1075 70.9833 45.9518 65.8974L58.3633 32.4656V74.2004V75.9015Z" fill="white"/>
<path d="M90.7924 0V122.624C95.5062 122.647 101.165 122.769 110.415 122.983C110.507 122.983 110.598 122.983 110.69 122.988C110.822 122.988 110.953 122.977 111.085 122.977C124.877 122.491 136.481 122.497 151 123V121.646C141.607 121.305 136.91 118.088 132.89 107.586L92.6367 0H90.7924ZM92.6367 32.4714L105.048 65.9032C106.892 70.9834 104.544 74.2062 99.3436 74.2062H92.6367C92.6367 74.7732 92.6367 75.3402 92.6424 75.9015H102.528C106.555 75.9015 109.401 77.5968 110.747 81.323L120.81 107.586C125.438 119.777 118.17 121.102 110.736 121.629C96.2622 120.992 92.6424 120.466 92.6424 75.9073H92.6367V32.4714Z" fill="white"/>
<path d="M75.9181 45.2875C69.005 45.2875 64.3886 47.787 61.8055 51.276V58.1152C63.8789 53.0003 70.2651 48.3541 78.736 48.3541C81.1244 48.3541 82.7739 48.9038 83.7705 50.0436C85.0363 51.4901 85.4029 54.0128 84.9275 57.9821L83.9366 64.7807H85.2482L89.0742 52.358V48.1863C85.2368 46.2422 80.9239 45.2875 75.9181 45.2875Z" fill="white"/>
<path d="M72.1437 88.2837L72.1093 88.6135H73.3407L73.3866 88.3704C74.8872 80.4204 76.6799 78.3606 82.1153 78.3606C83.4269 78.3606 84.79 78.3837 86.1532 78.4069C87.1326 78.4242 88.1062 78.4358 89.0742 78.4474V74.0384C87.7168 73.9921 86.3994 73.9632 85.2196 73.9632C76.5138 73.9632 73.2147 77.5795 72.1437 88.2837Z" fill="white"/>
<path d="M66.7083 99.9773C64.9843 99.9773 63.3462 99.8616 61.8055 99.6475V104.531C63.0083 104.676 64.2626 104.751 65.58 104.751C74.5664 104.751 81.0213 102.425 85.3227 97.6397C86.8634 95.9213 88.112 93.8961 89.0742 91.5528V83.6953C86.5598 94.7698 79.3432 99.9773 66.7025 99.9773H66.7083Z" fill="white"/>
<path d="M80.5345 69.479V68.2639H78.169C68.8962 68.2639 63.6154 66.1231 61.7998 63.6466V66.8868C63.1171 68.6689 64.9156 70.1444 67.1207 71.2032C65.2134 71.5851 63.4436 71.9959 61.7998 72.4414V74.8311C66.7025 72.6787 72.894 70.8908 80.2882 69.5253L80.5287 69.479H80.5345Z" fill="white"/>
</svg>
